<?xml version="1.0" encoding="UTF-8" standalone="no"?>
<!-- Created with Inkscape (http://www.inkscape.org/) -->

<svg
   width="799.99988"
   height="800.00366"
   viewBox="0 0 211.66663 211.66763"
   version="1.1"
   id="svg5"
   inkscape:version="1.3 (0e150ed6c4, 2023-07-21)"
   xml:space="preserve"
   sodipodi:docname="SDoH.svg"
   xmlns:inkscape="http://www.inkscape.org/namespaces/inkscape"
   xmlns:sodipodi="http://sodipodi.sourceforge.net/DTD/sodipodi-0.dtd"
   xmlns="http://www.w3.org/2000/svg"
   xmlns:svg="http://www.w3.org/2000/svg"><sodipodi:namedview
     id="namedview7"
     pagecolor="#ffffff"
     bordercolor="#000000"
     borderopacity="0.25"
     inkscape:showpageshadow="false"
     inkscape:pageopacity="0"
     inkscape:pagecheckerboard="false"
     inkscape:deskcolor="#ffffff"
     inkscape:document-units="px"
     showgrid="false"
     inkscape:zoom="0.84357839"
     inkscape:cx="415.49191"
     inkscape:cy="439.20044"
     inkscape:window-width="2531"
     inkscape:window-height="1353"
     inkscape:window-x="13"
     inkscape:window-y="0"
     inkscape:window-maximized="0"
     inkscape:current-layer="layer1" /><defs
     id="defs2"><filter
       style="color-interpolation-filters:sRGB"
       inkscape:label="Drop Shadow"
       id="filter141"
       x="-0.031144148"
       y="-0.031143993"
       width="1.0720275"
       height="1.0720271"><feFlood
         result="flood"
         in="SourceGraphic"
         flood-opacity="1.000000"
         flood-color="rgb(0,0,0)"
         id="feFlood140" /><feGaussianBlur
         result="blur"
         in="SourceGraphic"
         stdDeviation="1.000000"
         id="feGaussianBlur140" /><feOffset
         result="offset"
         in="blur"
         dx="1.000000"
         dy="1.000000"
         id="feOffset140" /><feComposite
         result="comp1"
         operator="in"
         in="flood"
         in2="offset"
         id="feComposite140" /><feComposite
         result="comp2"
         operator="over"
         in="SourceGraphic"
         in2="comp1"
         id="feComposite141" /></filter><filter
       style="color-interpolation-filters:sRGB"
       inkscape:label="Drop Shadow"
       id="filter143"
       x="-0.03114399"
       y="-0.031144149"
       width="1.0720271"
       height="1.0720275"><feFlood
         result="flood"
         in="SourceGraphic"
         flood-opacity="1.000000"
         flood-color="rgb(0,0,0)"
         id="feFlood141" /><feGaussianBlur
         result="blur"
         in="SourceGraphic"
         stdDeviation="1.000000"
         id="feGaussianBlur141" /><feOffset
         result="offset"
         in="blur"
         dx="1.000000"
         dy="1.000000"
         id="feOffset141" /><feComposite
         result="comp1"
         operator="in"
         in="flood"
         in2="offset"
         id="feComposite142" /><feComposite
         result="comp2"
         operator="over"
         in="SourceGraphic"
         in2="comp1"
         id="feComposite143" /></filter><filter
       style="color-interpolation-filters:sRGB"
       inkscape:label="Drop Shadow"
       id="filter145"
       x="-0.05314056"
       y="-0.05314056"
       width="1.1116187"
       height="1.1116187"><feFlood
         result="flood"
         in="SourceGraphic"
         flood-opacity="1.000000"
         flood-color="rgb(0,0,0)"
         id="feFlood143" /><feGaussianBlur
         result="blur"
         in="SourceGraphic"
         stdDeviation="1.000000"
         id="feGaussianBlur143" /><feOffset
         result="offset"
         in="blur"
         dx="1.000000"
         dy="1.000000"
         id="feOffset143" /><feComposite
         result="comp1"
         operator="in"
         in="flood"
         in2="offset"
         id="feComposite144" /><feComposite
         result="comp2"
         operator="over"
         in="SourceGraphic"
         in2="comp1"
         id="feComposite145" /></filter><filter
       style="color-interpolation-filters:sRGB"
       inkscape:label="Drop Shadow"
       id="filter147"
       x="-0.031144149"
       y="-0.031143991"
       width="1.0720275"
       height="1.0720271"><feFlood
         result="flood"
         in="SourceGraphic"
         flood-opacity="1.000000"
         flood-color="rgb(0,0,0)"
         id="feFlood145" /><feGaussianBlur
         result="blur"
         in="SourceGraphic"
         stdDeviation="1.000000"
         id="feGaussianBlur145" /><feOffset
         result="offset"
         in="blur"
         dx="1.000000"
         dy="1.000000"
         id="feOffset145" /><feComposite
         result="comp1"
         operator="in"
         in="flood"
         in2="offset"
         id="feComposite146" /><feComposite
         result="comp2"
         operator="over"
         in="SourceGraphic"
         in2="comp1"
         id="feComposite147" /></filter><filter
       style="color-interpolation-filters:sRGB"
       inkscape:label="Drop Shadow"
       id="filter149"
       x="-0.031143992"
       y="-0.031144148"
       width="1.0720271"
       height="1.0720275"><feFlood
         result="flood"
         in="SourceGraphic"
         flood-opacity="1.000000"
         flood-color="rgb(0,0,0)"
         id="feFlood147" /><feGaussianBlur
         result="blur"
         in="SourceGraphic"
         stdDeviation="1.000000"
         id="feGaussianBlur147" /><feOffset
         result="offset"
         in="blur"
         dx="1.000000"
         dy="1.000000"
         id="feOffset147" /><feComposite
         result="comp1"
         operator="in"
         in="flood"
         in2="offset"
         id="feComposite148" /><feComposite
         result="comp2"
         operator="over"
         in="SourceGraphic"
         in2="comp1"
         id="feComposite149" /></filter></defs><g
     inkscape:label="Layer 1"
     inkscape:groupmode="layer"
     id="layer1"
     transform="translate(0,-518.64307)"><g
       id="g165"
       transform="matrix(0.99489979,0,0,0.99489979,2.3918085,13.29671)"
       style="stroke-width:1.00512"
       inkscape:export-filename="..\..\..\..\Downloads\SDoH.svg"
       inkscape:export-xdpi="96"
       inkscape:export-ydpi="96"><g
         id="g31"
         transform="translate(21.070657,-10.663897)"
         style="stroke-width:1.00512"><path
           id="path30"
           style="opacity:1;fill:#007dba;fill-opacity:1;stroke:#ffffff;stroke-width:1.59564;stroke-linecap:round;stroke-miterlimit:10;stroke-dasharray:none;stroke-opacity:1;paint-order:fill markers stroke;filter:url(#filter149)"
           d="m 59.097641,584.78965 c -0.004,2.02399 0.5127,4.05686 1.55133,5.7919 0.0682,0.1324 0.15259,0.25515 0.23254,0.38034 1.25099,1.92342 3.16219,3.43172 5.36453,4.07158 1.41957,0.41243 2.93492,0.46549 4.39198,0.21601 0.94862,-0.16243 1.86527,-0.45531 2.76676,-0.79582 0.6548,-0.23797 1.30062,-0.50421 1.93218,-0.78858 0.9293,-0.40297 1.56991,-0.67172 2.29805,-0.86041 0.61704,-0.15989 1.2722,-0.23967 1.89756,-0.14676 0.0935,0.0181 0.18663,0.0401 0.27853,0.0667 0.9547,0.2756 1.74104,1.02002 2.16163,1.9203 0.36242,0.77574 0.4284,1.65313 0.4284,2.5094 v 2.66134 24.66154 h 27.330629 c 0.85365,4.3e-4 1.72786,0.0667 2.50114,0.42788 0.90028,0.42059 1.64469,1.20693 1.92029,2.16163 0.0269,0.0933 0.0495,0.18779 0.0677,0.28267 7e-5,3.2e-4 -6e-5,7.9e-4 0,10e-4 0.0917,0.62381 0.0122,1.27704 -0.14728,1.89239 -0.20422,0.78804 -0.53166,1.53732 -0.85473,2.28462 -0.2899,0.63804 -0.55214,1.28806 -0.79426,1.94562 -0.34053,0.90152 -0.63338,1.81809 -0.79582,2.76675 -0.24948,1.45706 -0.19642,2.97241 0.21601,4.39198 0.63997,2.20271 2.14817,4.11407 4.0721,5.36505 0.12135,0.0854 0.2508,0.15816 0.37931,0.23203 1.735,1.03863 3.7679,1.5557 5.79189,1.55132 h 5.2e-4 c 2.02395,0.004 4.05685,-0.51269 5.79189,-1.55132 0.1324,-0.0682 0.25515,-0.1526 0.38034,-0.23255 1.92346,-1.25099 3.43173,-3.16219 4.07159,-5.36453 0.41239,-1.41957 0.46548,-2.93492 0.216,-4.39198 -0.16243,-0.94862 -0.4553,-1.86526 -0.79581,-2.76675 -0.23797,-0.6548 -0.50422,-1.30063 -0.78859,-1.93219 -0.40297,-0.92926 -0.67172,-1.56991 -0.86041,-2.29805 -0.15989,-0.61704 -0.23967,-1.2722 -0.14676,-1.89756 0.0181,-0.0935 0.0401,-0.18663 0.0667,-0.27853 0.2756,-0.9547 1.02002,-1.74104 1.9203,-2.16163 0.77328,-0.36125 1.64749,-0.42745 2.50114,-0.42788 h 27.33115 v -24.66154 -2.66134 c 0,-0.85627 -0.066,-1.73365 -0.4284,-2.5094 -0.42059,-0.90028 -1.20693,-1.6447 -2.16163,-1.9203 -0.0919,-0.0266 -0.18503,-0.0486 -0.27853,-0.0667 -0.62536,-0.0929 -1.28052,-0.0131 -1.89756,0.14676 -0.72814,0.18869 -1.36875,0.45744 -2.29805,0.86041 -0.63156,0.28437 -1.27738,0.55061 -1.93218,0.78858 -0.90149,0.34051 -1.81814,0.63339 -2.76676,0.79582 -1.45706,0.24948 -2.97241,0.19642 -4.39198,-0.21601 -2.20234,-0.63986 -4.11354,-2.14815 -5.36453,-4.07158 -0.0799,-0.12519 -0.16434,-0.24794 -0.23254,-0.38034 -1.03863,-1.73504 -1.55533,-3.76791 -1.55133,-5.7919 v -5.1e-4 c -0.004,-2.02399 0.5127,-4.05686 1.55133,-5.7919 0.0739,-0.12851 0.14662,-0.25795 0.23202,-0.3793 1.25098,-1.92393 3.16234,-3.43214 5.36505,-4.07211 1.41957,-0.41243 2.93492,-0.46548 4.39198,-0.216 0.94866,0.16244 1.86524,0.45528 2.76676,0.79581 0.65756,0.24212 1.30757,0.50437 1.94561,0.79427 0.7473,0.32307 1.49658,0.65051 2.28462,0.85473 0.61535,0.15948 1.26858,0.23898 1.89239,0.14728 2.4e-4,-6e-5 7.1e-4,7e-5 10e-4,0 0.0949,-0.0182 0.18937,-0.0408 0.28267,-0.0677 0.9547,-0.2756 1.74104,-1.02002 2.16163,-1.9203 0.3624,-0.77574 0.4284,-1.65313 0.4284,-2.5094 v -2.66134 -24.66103 h -24.66155 -2.19108 -0.47025 c -0.85627,0 -1.73363,0.066 -2.50941,0.4284 -0.90028,0.42059 -1.6447,1.20693 -1.9203,2.16163 -0.0266,0.0919 -0.0486,0.18503 -0.0667,0.27853 -0.0929,0.62536 -0.0131,1.28052 0.14676,1.89756 0.18869,0.72814 0.45744,1.36875 0.86041,2.29805 0.28437,0.63156 0.55062,1.27738 0.78859,1.93218 0.34051,0.90149 0.63338,1.81814 0.79581,2.76676 0.24948,1.45706 0.1964,2.97241 -0.216,4.39198 -0.63986,2.20234 -2.14813,4.11354 -4.07159,5.36453 -0.12519,0.0799 -0.24794,0.16434 -0.38034,0.23254 -1.73504,1.03863 -3.76793,1.55533 -5.79189,1.55133 l -5.2e-4,-5.2e-4 c -2.02399,0.004 -4.05688,-0.51269 -5.79189,-1.55132 -0.12851,-0.0739 -0.25796,-0.14663 -0.37931,-0.23203 -1.92393,-1.25098 -3.43213,-3.16234 -4.0721,-5.36505 -0.41243,-1.41957 -0.46549,-2.93492 -0.21601,-4.39198 0.16244,-0.94866 0.45529,-1.86523 0.79582,-2.76675 0.24212,-0.65756 0.50436,-1.30758 0.79426,-1.94562 0.32307,-0.7473 0.65051,-1.49658 0.85473,-2.28462 0.15948,-0.61532 0.23898,-1.26858 0.14728,-1.89239 v -5.1e-4 c -0.0182,-0.0949 -0.0408,-0.18937 -0.0677,-0.28267 -0.2756,-0.9547 -1.02001,-1.74104 -1.92029,-2.16163 -0.77577,-0.3624 -1.65314,-0.4284 -2.50941,-0.4284 h -0.46974 -2.1916 -24.661019 v 24.66103 2.66134 c 0,0.85627 -0.066,1.73367 -0.4284,2.5094 -0.42059,0.90028 -1.20693,1.6447 -2.16163,1.9203 -0.0933,0.0269 -0.18779,0.0495 -0.28267,0.0677 -3.2e-4,7e-5 -7.9e-4,-6e-5 -0.001,0 -0.62381,0.0917 -1.27704,0.0122 -1.89239,-0.14728 -0.78804,-0.20422 -1.53732,-0.53166 -2.28462,-0.85473 -0.638,-0.2899 -1.28805,-0.55215 -1.94561,-0.79427 -0.90152,-0.34053 -1.8181,-0.63337 -2.76676,-0.79581 -1.45706,-0.24948 -2.97241,-0.19643 -4.39198,0.216 -2.20271,0.63997 -4.11407,2.14818 -5.36505,4.07211 -0.0854,0.12135 -0.15815,0.25079 -0.23202,0.3793 -1.03863,1.73504 -1.55571,3.76791 -1.55133,5.7919 z"
           inkscape:transform-center-x="11.651646"
           inkscape:transform-center-y="11.651672" /><path
           id="rect2"
           style="opacity:1;fill:#da291c;fill-opacity:1;stroke:#ffffff;stroke-width:1.59564;stroke-linecap:round;stroke-miterlimit:10;stroke-dasharray:none;stroke-opacity:1;paint-order:fill markers stroke;filter:url(#filter147)"
           d="m 42.713601,521.7987 c -2.02399,-0.004 -4.05686,0.5127 -5.7919,1.55133 -0.1324,0.0682 -0.25515,0.15259 -0.38034,0.23254 -1.92342,1.25099 -3.43172,3.16219 -4.07158,5.36453 -0.41243,1.41957 -0.46549,2.93492 -0.21601,4.39198 0.16243,0.94862 0.45531,1.86527 0.79582,2.76676 0.23797,0.6548 0.50421,1.30062 0.78858,1.93218 0.40297,0.9293 0.67172,1.56991 0.86041,2.29805 0.15989,0.61704 0.23967,1.2722 0.14676,1.89756 -0.0181,0.0935 -0.0401,0.18663 -0.0667,0.27853 -0.2756,0.9547 -1.02002,1.74104 -1.9203,2.16163 -0.77574,0.36242 -1.65313,0.4284 -2.5094,0.4284 H 27.687601 3.0260609 v 27.33063 c -4.3e-4,0.85365 -0.0667,1.72786 -0.42788,2.50114 -0.42059,0.90028 -1.20693,1.64469 -2.16162998,1.92029 -0.0933,0.0269 -0.18779,0.0495 -0.28267,0.0677 -3.2e-4,7e-5 -7.9e-4,-6e-5 -0.001,0 -0.62381,0.0917 -1.27704002,0.0122 -1.89239002,-0.14728 -0.78804,-0.20422 -1.53732,-0.53166 -2.28462,-0.85473 -0.63804,-0.2899 -1.28806,-0.55214 -1.94562,-0.79426 -0.90152,-0.34053 -1.81809,-0.63338 -2.76675,-0.79582 -1.4570599,-0.24948 -2.9724099,-0.19642 -4.3919799,0.21601 -2.20271,0.63997 -4.11407,2.14817 -5.36505,4.0721 -0.0854,0.12135 -0.15816,0.2508 -0.23203,0.37931 -1.03863,1.735 -1.5557,3.7679 -1.55132,5.79189 v 5.2e-4 c -0.004,2.02395 0.51269,4.05685 1.55132,5.79189 0.0682,0.1324 0.1526,0.25515 0.23255,0.38034 1.25099,1.92346 3.16219,3.43173 5.36453,4.07159 1.41957,0.41239 2.93492,0.46548 4.3919799,0.216 0.94862,-0.16243 1.86526,-0.4553 2.76675,-0.79581 0.6548,-0.23797 1.30063,-0.50422 1.93219,-0.78859 0.92926,-0.40297 1.56991,-0.67172 2.29805,-0.86041 0.61704,-0.15989 1.27220002,-0.23967 1.89756002,-0.14676 0.0935,0.0181 0.18663,0.0401 0.27853,0.0667 0.95469998,0.2756 1.74103998,1.02002 2.16162998,1.9203 0.36125,0.77328 0.42745,1.64749 0.42788,2.50114 v 27.33115 h 24.6615401 2.66134 c 0.85627,0 1.73365,-0.066 2.5094,-0.4284 0.90028,-0.42059 1.6447,-1.20693 1.9203,-2.16163 0.0266,-0.0919 0.0486,-0.18503 0.0667,-0.27853 0.0929,-0.62536 0.0131,-1.28052 -0.14676,-1.89756 -0.18869,-0.72814 -0.45744,-1.36875 -0.86041,-2.29805 -0.28437,-0.63156 -0.55061,-1.27738 -0.78858,-1.93218 -0.34051,-0.90149 -0.63339,-1.81814 -0.79582,-2.76676 -0.24948,-1.45706 -0.19642,-2.97241 0.21601,-4.39198 0.63986,-2.20234 2.14815,-4.11354 4.07158,-5.36453 0.12519,-0.0799 0.24794,-0.16434 0.38034,-0.23254 1.73504,-1.03863 3.76791,-1.55533 5.7919,-1.55133 h 5.1e-4 c 2.02399,-0.004 4.05686,0.5127 5.7919,1.55133 0.12851,0.0739 0.25795,0.14662 0.3793,0.23202 1.92393,1.25098 3.43214,3.16234 4.07211,5.36505 0.41243,1.41957 0.46548,2.93492 0.216,4.39198 -0.16244,0.94866 -0.45528,1.86524 -0.79581,2.76676 -0.24212,0.65756 -0.50437,1.30757 -0.79427,1.94561 -0.32307,0.7473 -0.65051,1.49658 -0.85473,2.28462 -0.15948,0.61535 -0.23898,1.26858 -0.14728,1.89239 6e-5,2.4e-4 -7e-5,7.1e-4 0,10e-4 0.0182,0.0949 0.0408,0.18937 0.0677,0.28267 0.2756,0.9547 1.02002,1.74104 1.9203,2.16163 0.77574,0.3624 1.65313,0.4284 2.5094,0.4284 h 2.66134 24.66103 v -24.66155 -2.19108 -0.47025 c 0,-0.85627 -0.066,-1.73363 -0.4284,-2.50941 -0.42059,-0.90028 -1.20693,-1.6447 -2.16163,-1.9203 -0.0919,-0.0266 -0.18503,-0.0486 -0.27853,-0.0667 -0.62536,-0.0929 -1.28052,-0.0131 -1.89756,0.14676 -0.72814,0.18869 -1.36875,0.45744 -2.29805,0.86041 -0.63156,0.28437 -1.27738,0.55062 -1.93218,0.78859 -0.90149,0.34051 -1.81814,0.63338 -2.76676,0.79581 -1.45706,0.24948 -2.97241,0.1964 -4.39198,-0.216 -2.20234,-0.63986 -4.11354,-2.14813 -5.36453,-4.07159 -0.0799,-0.12519 -0.16434,-0.24794 -0.23254,-0.38034 -1.03863,-1.73504 -1.55533,-3.76793 -1.55133,-5.79189 l 5.2e-4,-5.2e-4 c -0.004,-2.02399 0.51269,-4.05688 1.55132,-5.79189 0.0739,-0.12851 0.14663,-0.25796 0.23203,-0.37931 1.25098,-1.92393 3.16234,-3.43213 5.36505,-4.0721 1.41957,-0.41243 2.93492,-0.46549 4.39198,-0.21601 0.94866,0.16244 1.86523,0.45529 2.76675,0.79582 0.65756,0.24212 1.30758,0.50436 1.94562,0.79426 0.7473,0.32307 1.49658,0.65051 2.28462,0.85473 0.61532,0.15948 1.26858,0.23898 1.89239,0.14728 h 5.1e-4 c 0.0949,-0.0182 0.18937,-0.0408 0.28267,-0.0677 0.9547,-0.2756 1.74104,-1.02001 2.16163,-1.92029 0.3624,-0.77577 0.4284,-1.65314 0.4284,-2.50941 v -0.46974 -2.1916 -24.66102 h -24.66103 -2.66134 c -0.85627,0 -1.73367,-0.066 -2.5094,-0.4284 -0.90028,-0.42059 -1.6447,-1.20693 -1.9203,-2.16163 -0.0269,-0.0933 -0.0495,-0.18779 -0.0677,-0.28267 -7e-5,-3.2e-4 6e-5,-7.9e-4 0,-10e-4 -0.0917,-0.62381 -0.0122,-1.27704 0.14728,-1.89239 0.20422,-0.78804 0.53166,-1.53732 0.85473,-2.28462 0.2899,-0.638 0.55215,-1.28805 0.79427,-1.94561 0.34053,-0.90152 0.63337,-1.8181 0.79581,-2.76676 0.24948,-1.45706 0.19643,-2.97241 -0.216,-4.39198 -0.63997,-2.20271 -2.14818,-4.11407 -4.07211,-5.36505 -0.12135,-0.0854 -0.25079,-0.15815 -0.3793,-0.23202 -1.73504,-1.03863 -3.76791,-1.55571 -5.7919,-1.55133 z"
           inkscape:transform-center-x="11.651673"
           inkscape:transform-center-y="-11.651646" /><g
           id="g41"
           transform="matrix(0.99956857,0,0,0.99956857,-247.911,439.19124)"
           style="stroke:#012169;stroke-width:1.00555;stroke-opacity:1;filter:url(#filter145)"><circle
             style="opacity:1;fill:none;stroke:#012169;stroke-width:15.112;stroke-linecap:round;stroke-miterlimit:10;stroke-dasharray:none;stroke-opacity:1;paint-order:fill markers stroke"
             id="circle41"
             cx="330.45468"
             cy="185.36595"
             r="93.676094" /></g><path
           id="path31"
           style="opacity:1;fill:#348338;fill-opacity:1;stroke:#ffffff;stroke-width:1.59564;stroke-linecap:round;stroke-miterlimit:10;stroke-dasharray:none;stroke-opacity:1;paint-order:fill markers stroke;filter:url(#filter141)"
           d="m 122.08866,727.15575 c 2.02399,0.004 4.05686,-0.5127 5.7919,-1.55133 0.1324,-0.0682 0.25515,-0.15259 0.38034,-0.23254 1.92342,-1.25099 3.43172,-3.16219 4.07158,-5.36453 0.41243,-1.41957 0.46549,-2.93492 0.21601,-4.39198 -0.16243,-0.94862 -0.45531,-1.86527 -0.79582,-2.76676 -0.23797,-0.6548 -0.50421,-1.30062 -0.78858,-1.93218 -0.40297,-0.9293 -0.67172,-1.56991 -0.86041,-2.29805 -0.15989,-0.61704 -0.23967,-1.2722 -0.14676,-1.89756 0.0181,-0.0935 0.0401,-0.18663 0.0667,-0.27853 0.2756,-0.9547 1.02002,-1.74104 1.9203,-2.16163 0.77574,-0.36242 1.65313,-0.4284 2.5094,-0.4284 h 2.66134 24.66154 v -27.33063 c 4.3e-4,-0.85365 0.0667,-1.72786 0.42788,-2.50114 0.42059,-0.90028 1.20693,-1.64469 2.16163,-1.92029 0.0933,-0.0269 0.18779,-0.0495 0.28267,-0.0677 3.2e-4,-7e-5 7.9e-4,6e-5 0.001,0 0.62381,-0.0917 1.27704,-0.0122 1.89239,0.14728 0.78804,0.20422 1.53732,0.53166 2.28462,0.85473 0.63804,0.2899 1.28806,0.55214 1.94562,0.79426 0.90152,0.34053 1.81809,0.63338 2.76675,0.79583 1.45706,0.24947 2.97241,0.19642 4.39198,-0.21601 2.20271,-0.63997 4.11407,-2.14818 5.36505,-4.0721 0.0854,-0.12135 0.15816,-0.2508 0.23203,-0.37931 1.03863,-1.735 1.5557,-3.76791 1.55132,-5.79189 v -5.2e-4 c 0.004,-2.02395 -0.51269,-4.05686 -1.55132,-5.79189 -0.0682,-0.1324 -0.1526,-0.25515 -0.23255,-0.38034 -1.25099,-1.92346 -3.16219,-3.43174 -5.36453,-4.0716 -1.41957,-0.41238 -2.93492,-0.46547 -4.39198,-0.216 -0.94862,0.16243 -1.86526,0.4553 -2.76675,0.79581 -0.6548,0.23797 -1.30063,0.50422 -1.93219,0.78859 -0.92926,0.40297 -1.56991,0.67172 -2.29805,0.86041 -0.61704,0.15989 -1.2722,0.23967 -1.89756,0.14676 -0.0935,-0.0181 -0.18663,-0.0401 -0.27853,-0.0667 -0.9547,-0.2756 -1.74104,-1.02002 -2.16163,-1.9203 -0.36125,-0.77328 -0.42745,-1.64749 -0.42788,-2.50114 v -27.33114 h -24.66154 -2.66134 c -0.85627,0 -1.73365,0.066 -2.5094,0.4284 -0.90028,0.42058 -1.6447,1.20693 -1.9203,2.16162 -0.0266,0.0919 -0.0486,0.18503 -0.0667,0.27854 -0.0929,0.62536 -0.0131,1.28052 0.14676,1.89756 0.18869,0.72814 0.45744,1.36874 0.86041,2.29804 0.28437,0.63157 0.55061,1.27738 0.78858,1.93219 0.34051,0.90148 0.63339,1.81813 0.79582,2.76675 0.24948,1.45706 0.19642,2.97241 -0.21601,4.39198 -0.63986,2.20235 -2.14815,4.11355 -4.07158,5.36453 -0.12519,0.0799 -0.24794,0.16434 -0.38034,0.23254 -1.73504,1.03863 -3.76791,1.55533 -5.7919,1.55133 h -5.1e-4 c -2.02399,0.004 -4.05686,-0.5127 -5.7919,-1.55133 -0.12851,-0.0739 -0.25795,-0.14662 -0.3793,-0.23202 -1.92393,-1.25098 -3.43214,-3.16234 -4.07211,-5.36505 -0.41243,-1.41957 -0.46548,-2.93492 -0.216,-4.39198 0.16244,-0.94866 0.45528,-1.86524 0.79581,-2.76676 0.24212,-0.65756 0.50437,-1.30757 0.79427,-1.94561 0.32307,-0.7473 0.65051,-1.49658 0.85473,-2.28462 0.15948,-0.61535 0.23898,-1.26858 0.14728,-1.89239 -6e-5,-2.4e-4 7e-5,-7.1e-4 0,-10e-4 -0.0182,-0.0949 -0.0408,-0.18937 -0.0677,-0.28267 -0.2756,-0.9547 -1.02002,-1.74104 -1.9203,-2.16163 -0.77574,-0.3624 -1.65313,-0.4284 -2.5094,-0.4284 h -2.66134 -24.661029 v 24.66155 2.19109 0.47024 c 0,0.85627 0.066,1.73363 0.4284,2.50941 0.42059,0.90028 1.20693,1.6447 2.16163,1.9203 0.0919,0.0266 0.18503,0.0486 0.27853,0.0667 0.62536,0.0929 1.28052,0.0131 1.89756,-0.14676 0.72814,-0.18868 1.36875,-0.45744 2.29805,-0.86041 0.63156,-0.28436 1.27738,-0.55062 1.93218,-0.78859 0.90149,-0.34051 1.81814,-0.63338 2.76676,-0.7958 1.45706,-0.24948 2.97241,-0.19641 4.39198,0.216 2.202339,0.63986 4.113539,2.14813 5.364529,4.07159 0.0799,0.12519 0.16434,0.24794 0.23254,0.38034 1.03863,1.73504 1.55533,3.76793 1.55133,5.79189 l -5.2e-4,5.2e-4 c 0.004,2.02399 -0.51269,4.05688 -1.55132,5.79189 -0.0739,0.12851 -0.14663,0.25796 -0.23203,0.37931 -1.25098,1.92393 -3.16234,3.43213 -5.365049,4.0721 -1.41957,0.41243 -2.93492,0.46549 -4.39198,0.21601 -0.94866,-0.16244 -1.86523,-0.45529 -2.76675,-0.79582 -0.65756,-0.24212 -1.30758,-0.50437 -1.94562,-0.79426 -0.7473,-0.32308 -1.49658,-0.65052 -2.28462,-0.85474 -0.61532,-0.15948 -1.26858,-0.23897 -1.89239,-0.14728 h -5.1e-4 c -0.0949,0.0182 -0.18937,0.0408 -0.28267,0.0677 -0.9547,0.2756 -1.74104,1.02001 -2.16163,1.92029 -0.3624,0.77577 -0.4284,1.65314 -0.4284,2.50941 v 0.46974 2.1916 24.66102 h 24.661029 2.66134 c 0.85627,0 1.73367,0.066 2.5094,0.4284 0.90028,0.42059 1.6447,1.20694 1.9203,2.16163 0.0269,0.0933 0.0495,0.18779 0.0677,0.28267 7e-5,3.2e-4 -6e-5,7.9e-4 0,10e-4 0.0917,0.62381 0.0122,1.27704 -0.14728,1.89239 -0.20422,0.78804 -0.53166,1.53732 -0.85473,2.28462 -0.2899,0.638 -0.55215,1.28805 -0.79427,1.94561 -0.34053,0.90152 -0.63337,1.8181 -0.79581,2.76676 -0.24948,1.45706 -0.19643,2.97241 0.216,4.39198 0.63997,2.20271 2.14818,4.11407 4.07211,5.36505 0.12135,0.0854 0.25079,0.15815 0.3793,0.23202 1.73504,1.03863 3.76791,1.55571 5.7919,1.55133 z"
           inkscape:transform-center-x="-11.651672"
           inkscape:transform-center-y="11.651642" /><path
           id="path29"
           style="opacity:1;fill:#f2a900;fill-opacity:1;stroke:#ffffff;stroke-width:1.59564;stroke-linecap:round;stroke-miterlimit:10;stroke-dasharray:none;stroke-opacity:1;paint-order:fill markers stroke;filter:url(#filter143)"
           d="m 105.70462,664.16474 c 0.004,-2.02399 -0.5127,-4.05686 -1.55133,-5.7919 -0.0682,-0.1324 -0.15259,-0.25515 -0.23254,-0.38034 -1.25099,-1.92342 -3.16219,-3.43172 -5.364531,-4.07158 -1.419569,-0.41243 -2.934919,-0.46549 -4.391979,-0.21601 -0.94862,0.16243 -1.86527,0.45531 -2.76676,0.79582 -0.6548,0.23797 -1.30062,0.50421 -1.93218,0.78858 -0.9293,0.40297 -1.56991,0.67172 -2.29805,0.86041 -0.61704,0.15989 -1.2722,0.23967 -1.89756,0.14676 -0.0935,-0.0181 -0.18663,-0.0401 -0.27853,-0.0667 -0.9547,-0.2756 -1.74104,-1.02002 -2.16163,-1.9203 -0.36242,-0.77574 -0.4284,-1.65313 -0.4284,-2.5094 V 649.13874 624.4772 H 55.0705 c -0.85365,-4.3e-4 -1.72786,-0.0667 -2.50114,-0.42788 -0.90028,-0.42059 -1.64469,-1.20693 -1.92029,-2.16163 -0.0269,-0.0933 -0.0495,-0.18779 -0.0677,-0.28267 -7e-5,-3.2e-4 6e-5,-7.9e-4 0,-10e-4 -0.0917,-0.62381 -0.0122,-1.27704 0.14728,-1.89239 0.20422,-0.78804 0.53166,-1.53732 0.85473,-2.28462 0.2899,-0.63804 0.55214,-1.28806 0.79426,-1.94562 0.34053,-0.90152 0.63338,-1.81809 0.79582,-2.76675 0.24948,-1.45706 0.19642,-2.97241 -0.21601,-4.39198 -0.63997,-2.20271 -2.14817,-4.11407 -4.0721,-5.36505 -0.12135,-0.0854 -0.2508,-0.15816 -0.37931,-0.23203 -1.735,-1.03863 -3.7679,-1.5557 -5.79189,-1.55132 h -5.2e-4 c -2.02395,-0.004 -4.05685,0.51269 -5.79189,1.55132 -0.1324,0.0682 -0.25515,0.1526 -0.38034,0.23255 -1.92346,1.25099 -3.43173,3.16219 -4.07159,5.36453 -0.41239,1.41957 -0.46548,2.93492 -0.216,4.39198 0.16243,0.94862 0.4553,1.86526 0.79581,2.76675 0.23797,0.6548 0.50422,1.30063 0.78859,1.93219 0.40297,0.92926 0.67172,1.56991 0.86041,2.29805 0.15989,0.61704 0.23967,1.2722 0.14676,1.89756 -0.0181,0.0935 -0.0401,0.18663 -0.0667,0.27853 -0.2756,0.9547 -1.02002,1.74104 -1.9203,2.16163 -0.77328,0.36125 -1.64749,0.42745 -2.50114,0.42788 H 3.0260909 v 24.66154 2.66134 c 0,0.85627 0.066,1.73365 0.4284,2.5094 0.42059,0.90028 1.20693,1.6447 2.16163,1.9203 0.0919,0.0266 0.18503,0.0486 0.27853,0.0667 0.62536,0.0929 1.28052,0.0131 1.89756,-0.14676 0.7281396,-0.18869 1.3687496,-0.45744 2.2980491,-0.86041 0.63156,-0.28437 1.27738,-0.55061 1.93218,-0.78858 0.90149,-0.34051 1.81814,-0.63339 2.76676,-0.79582 1.45706,-0.24948 2.97241,-0.19642 4.39198,0.21601 2.20234,0.63986 4.11354,2.14815 5.36453,4.07158 0.0799,0.12519 0.16434,0.24794 0.23254,0.38034 1.03863,1.73504 1.55533,3.76791 1.55133,5.7919 v 5.1e-4 c 0.004,2.02399 -0.5127,4.05686 -1.55133,5.7919 -0.0739,0.12851 -0.14662,0.25795 -0.23202,0.3793 -1.25098,1.92393 -3.16234,3.43214 -5.36505,4.07211 -1.41957,0.41243 -2.93492,0.46548 -4.39198,0.216 -0.94866,-0.16244 -1.86524,-0.45528 -2.76676,-0.79581 -0.65756,-0.24212 -1.30757,-0.50437 -1.94561,-0.79427 -0.7472996,-0.32307 -1.4965795,-0.65051 -2.2846191,-0.85473 -0.61535,-0.15948 -1.26858,-0.23898 -1.89239,-0.14728 -2.4e-4,6e-5 -7.1e-4,-7e-5 -0.001,0 -0.0949,0.0182 -0.18937,0.0408 -0.28267,0.0677 -0.9547,0.2756 -1.74104,1.02002 -2.16163,1.9203 -0.3624,0.77574 -0.4284,1.65313 -0.4284,2.5094 v 2.66134 24.66103 H 27.68767 29.87875 30.349 c 0.85627,0 1.73363,-0.066 2.50941,-0.4284 0.90028,-0.42059 1.6447,-1.20693 1.9203,-2.16163 0.0266,-0.0919 0.0486,-0.18503 0.0667,-0.27853 0.0929,-0.62536 0.0131,-1.28052 -0.14676,-1.89756 -0.18869,-0.72814 -0.45744,-1.36875 -0.86041,-2.29805 -0.28437,-0.63156 -0.55062,-1.27738 -0.78859,-1.93218 -0.34051,-0.90149 -0.63338,-1.81814 -0.79581,-2.76676 -0.24948,-1.45706 -0.1964,-2.97241 0.216,-4.39198 0.63986,-2.20234 2.14813,-4.11354 4.07159,-5.36453 0.12519,-0.0799 0.24794,-0.16434 0.38034,-0.23254 1.73504,-1.03863 3.76793,-1.55533 5.79189,-1.55133 l 5.2e-4,5.2e-4 c 2.02399,-0.004 4.05688,0.51269 5.79189,1.55132 0.12851,0.0739 0.25796,0.14663 0.37931,0.23203 1.92393,1.25098 3.43213,3.16234 4.0721,5.36505 0.41243,1.41957 0.46549,2.93492 0.21601,4.39198 -0.16244,0.94866 -0.45529,1.86523 -0.79582,2.76675 -0.24212,0.65756 -0.50436,1.30758 -0.79426,1.94562 -0.32307,0.7473 -0.65051,1.49658 -0.85473,2.28462 -0.15948,0.61532 -0.23898,1.26858 -0.14728,1.89239 v 5.1e-4 c 0.0182,0.0949 0.0408,0.18937 0.0677,0.28267 0.2756,0.9547 1.02001,1.74104 1.92029,2.16163 0.77577,0.3624 1.65314,0.4284 2.50941,0.4284 h 0.46974 2.1916 24.66102 v -24.66103 -2.66134 c 0,-0.85627 0.066,-1.73367 0.4284,-2.5094 0.42059,-0.90028 1.20693,-1.6447 2.16163,-1.9203 0.0933,-0.0269 0.18779,-0.0495 0.28267,-0.0677 3.2e-4,-7e-5 7.9e-4,6e-5 0.001,0 0.62381,-0.0917 1.27704,-0.0122 1.89239,0.14728 0.78804,0.20422 1.53732,0.53166 2.28462,0.85473 0.638,0.2899 1.28805,0.55215 1.94561,0.79427 0.90152,0.34053 1.8181,0.63337 2.76676,0.79581 1.45706,0.24948 2.97241,0.19643 4.391979,-0.216 2.202711,-0.63997 4.114071,-2.14818 5.365051,-4.07211 0.0854,-0.12135 0.15815,-0.25079 0.23202,-0.3793 1.03863,-1.73504 1.55571,-3.76791 1.55133,-5.7919 z"
           inkscape:transform-center-x="-11.651645"
           inkscape:transform-center-y="-11.651676" /></g><g
         id="g159"
         style="stroke-width:1.00512"><text
           xml:space="preserve"
           style="font-style:normal;font-variant:normal;font-weight:normal;font-stretch:normal;font-size:5.92423px;font-family:Corbel;-inkscape-font-specification:Corbel;text-align:center;text-anchor:middle;fill:#ffffff;fill-opacity:1;stroke:#ffffff;stroke-width:0.13297;stroke-linecap:round;stroke-miterlimit:10;stroke-dasharray:none;stroke-opacity:1;paint-order:fill markers stroke"
           x="130.30093"
           y="608.40399"
           id="text156"><tspan
             sodipodi:role="line"
             id="tspan156"
             style="font-style:normal;font-variant:normal;font-weight:normal;font-stretch:normal;font-family:'MS Reference Sans Serif';-inkscape-font-specification:'MS Reference Sans Serif';fill:#ffffff;stroke:#ffffff;stroke-width:0.13297;stroke-dasharray:none;stroke-opacity:1"
             x="130.30093"
             y="608.40399">Environmental</tspan></text><text
           xml:space="preserve"
           style="font-style:normal;font-variant:normal;font-weight:normal;font-stretch:normal;font-size:5.92423px;font-family:Corbel;-inkscape-font-specification:Corbel;text-align:center;text-anchor:middle;fill:#ffffff;fill-opacity:1;stroke:none;stroke-width:0.13297;stroke-linecap:round;stroke-miterlimit:10;stroke-dasharray:none;stroke-opacity:1;paint-order:fill markers stroke"
           x="117.16851"
           y="623.56793"
           id="text157"><tspan
             sodipodi:role="line"
             id="tspan157"
             style="font-style:normal;font-variant:normal;font-weight:normal;font-stretch:normal;font-family:'MS Reference Sans Serif';-inkscape-font-specification:'MS Reference Sans Serif';fill:#ffffff;stroke:none;stroke-width:0.13297;stroke-dasharray:none;stroke-opacity:1"
             x="117.16851"
             y="623.56793">Policy</tspan></text><text
           xml:space="preserve"
           style="font-style:normal;font-variant:normal;font-weight:normal;font-stretch:normal;font-size:5.92423px;font-family:Corbel;-inkscape-font-specification:Corbel;text-align:center;text-anchor:middle;fill:#ffffff;fill-opacity:1;stroke:#ffffff;stroke-width:0.13297;stroke-linecap:round;stroke-miterlimit:10;stroke-dasharray:none;stroke-opacity:1;paint-order:fill markers stroke"
           x="86.503815"
           y="623.63403"
           id="text158"><tspan
             sodipodi:role="line"
             id="tspan158"
             style="font-style:normal;font-variant:normal;font-weight:normal;font-stretch:normal;font-family:'MS Reference Sans Serif';-inkscape-font-specification:'MS Reference Sans Serif';fill:#ffffff;stroke:#ffffff;stroke-width:0.13297;stroke-dasharray:none;stroke-opacity:1"
             x="86.503815"
             y="623.63403">Cultural</tspan></text><text
           xml:space="preserve"
           style="font-style:normal;font-variant:normal;font-weight:normal;font-stretch:normal;font-size:5.92423px;font-family:Corbel;-inkscape-font-specification:Corbel;text-align:center;text-anchor:middle;fill:#ffffff;fill-opacity:1;stroke:#ffffff;stroke-width:0.13297;stroke-linecap:round;stroke-miterlimit:10;stroke-dasharray:none;stroke-opacity:1;paint-order:fill markers stroke"
           x="89.334312"
           y="608.40399"
           id="text159"><tspan
             sodipodi:role="line"
             id="tspan159"
             style="font-style:normal;font-variant:normal;font-weight:normal;font-stretch:normal;font-family:'MS Reference Sans Serif';-inkscape-font-specification:'MS Reference Sans Serif';fill:#ffffff;stroke:#ffffff;stroke-width:0.13297;stroke-dasharray:none;stroke-opacity:1"
             x="89.334312"
             y="608.40399">Social</tspan></text></g><circle
         style="opacity:1;fill:none;fill-opacity:1;stroke:none;stroke-width:0.13297;stroke-linecap:round;stroke-miterlimit:10;stroke-dasharray:none;stroke-opacity:1;paint-order:fill markers stroke"
         id="path159"
         cx="592.04419"
         cy="192.24165"
         r="89.463577"
         transform="rotate(62.442449)" /><path
         style="font-size:11.2889px;line-height:0;font-family:'MS Reference Sans Serif';-inkscape-font-specification:'MS Reference Sans Serif';text-align:center;letter-spacing:0.926042px;text-anchor:middle;fill:#f9f9f9;stroke:#ffffff;stroke-width:0.13297;stroke-linecap:round;stroke-miterlimit:10;paint-order:fill markers stroke"
         d="m 11.829608,607.45755 q 0.479276,0.0165 0.93978,0.25839 0.460694,0.23643 0.771915,0.64973 0.337442,0.45282 0.515529,1.04908 0.178276,0.59075 0.14991,1.41709 -0.03045,0.88694 -0.220108,1.59191 -0.189473,0.69947 -0.539649,1.421 l -1.366211,-0.0469 0.0026,-0.0771 q 0.539207,-0.60473 0.848149,-1.41041 0.308942,-0.80567 0.333526,-1.52183 0.0348,-1.01364 -0.326031,-1.5886 -0.360638,-0.58047 -0.994163,-0.60221 -0.545382,-0.0187 -0.813567,0.24232 -0.267996,0.25554 -0.429949,0.79601 -0.124361,0.40939 -0.212618,0.89171 -0.08807,0.47682 -0.216779,1.01291 -0.268817,1.08282 -0.8433712,1.59258 -0.5798741,0.50406 -1.4778271,0.47323 -1.0301668,-0.0354 -1.655849,-0.92827 -0.6311912,-0.8931 -0.5852388,-2.23177 0.029689,-0.8649 0.2197295,-1.58089 0.1900401,-0.716 0.4515318,-1.26408 l 1.2890858,0.0442 -0.00265,0.0771 q -0.4127156,0.45464 -0.6979201,1.21149 -0.2905242,0.75116 -0.3179444,1.54995 -0.030068,0.87592 0.3151776,1.42276 0.3454343,0.54134 0.9183613,0.561 0.512329,0.0176 0.8133784,-0.23681 0.3010494,-0.25441 0.4781806,-0.91569 0.089227,-0.34993 0.2217201,-0.9962 0.1324926,-0.64627 0.2636864,-1.09403 0.2737835,-0.90615 0.7799616,-1.35207 0.506178,-0.44592 1.387604,-0.41566 z m 0.194777,-8.10061 q 1.492872,0.18924 2.259833,1.06434 0.76696,0.8751 0.604061,2.16017 -0.164286,1.29601 -1.125339,1.95206 -0.96036,0.65058 -2.453233,0.46134 -1.4928724,-0.18924 -2.2605262,-1.05887 -0.7724289,-0.87579 -0.6081432,-2.1718 0.1628993,-1.28507 1.129421,-1.94043 0.9610534,-0.65605 2.4539264,-0.46681 z m -0.134479,1.06086 q -1.186642,-0.15042 -1.819745,0.24161 -0.6385714,0.39134 -0.7432429,1.21707 -0.1060578,0.83666 0.4146713,1.37495 0.5159536,0.53213 1.7025966,0.68256 1.148363,0.14556 1.80334,-0.24369 0.649508,-0.38995 0.754873,-1.22115 0.103978,-0.82026 -0.42222,-1.35924 -0.530972,-0.54515 -1.690273,-0.69211 z m 4.204293,-7.69979 q 0.135921,0.55815 0.174192,1.04502 0.03941,0.48149 -0.06853,0.9939 -0.137475,0.65265 -0.441011,1.15765 -0.308929,0.50388 -0.779086,0.81043 -0.471293,0.31194 -1.110057,0.40271 -0.638764,0.0908 -1.431652,-0.0762 -1.4779,-0.31131 -2.148907,-1.29762 -0.6698712,-0.9917 -0.3892388,-2.32397 0.1090718,-0.51781 0.3592308,-0.98336 0.251296,-0.47095 0.549139,-0.84196 l 1.127303,0.23746 -0.01136,0.0539 q -0.459094,0.38774 -0.757798,0.84307 -0.297567,0.44993 -0.396414,0.91919 -0.181786,0.86301 0.295081,1.48734 0.472609,0.6178 1.594518,0.85412 1.089547,0.2295 1.779725,-0.13209 0.685921,-0.36813 0.872252,-1.25272 0.06476,-0.30744 0.05089,-0.64272 -0.01387,-0.33528 -0.08992,-0.61605 -0.06669,-0.24501 -0.149842,-0.46532 -0.08855,-0.22144 -0.156385,-0.35402 l 0.01136,-0.0539 z m -5.665136,-5.07523 -0.309607,1.12682 -1.0364592,-0.28478 0.3096067,-1.12682 z m 6.913464,1.96815 -0.274557,0.99926 -5.937051,-1.63128 0.274557,-0.99925 z m 2.391657,-7.38215 -0.337625,0.97391 -0.619761,-0.21485 q 0.0434,0.16089 0.127215,0.44081 0.08041,0.27291 0.101938,0.51373 0.03493,0.2863 0.0029,0.63108 -0.0268,0.34658 -0.174855,0.77364 -0.272627,0.78642 -0.983011,1.15272 -0.710384,0.3663 -1.517637,0.0865 -0.661426,-0.22929 -0.970161,-0.65136 -0.312137,-0.42907 -0.364147,-1.03634 -0.05021,-0.61247 0.12465,-1.38611 0.174854,-0.77364 0.429288,-1.64221 l -0.151034,-0.0524 q -0.333318,-0.11555 -0.593583,-0.0716 -0.25846,0.0387 -0.459284,0.21416 -0.192006,0.16679 -0.334777,0.444 -0.142772,0.27721 -0.252906,0.59491 -0.133606,0.38539 -0.193743,0.89544 -0.06535,0.50824 -0.04778,1.08023 l -0.01806,0.0521 -0.994744,-0.34485 q 0.02118,-0.31353 0.115205,-0.88767 0.09402,-0.57414 0.276378,-1.10015 0.213046,-0.61456 0.474285,-1.03155 0.257836,-0.42401 0.618166,-0.67247 0.353318,-0.24505 0.793088,-0.28512 0.439771,-0.0401 1.002244,0.15492 z m -1.769847,0.4774 -1.619714,-0.5615 q -0.129231,0.45692 -0.288392,1.08432 -0.157354,0.62219 -0.181174,1.01065 -0.02646,0.46338 0.138464,0.81225 0.159714,0.34707 0.602402,0.50053 0.499975,0.17333 0.859889,-0.0403 0.354706,-0.2154 0.569558,-0.83517 0.178743,-0.5156 0.128885,-1.01127 -0.05507,-0.49747 -0.209918,-0.95954 z m 3.281783,-4.14832 -0.402846,0.95478 -7.902323,-3.33419 0.402845,-0.95478 z m 3.379429,-15.24388 q 0.965307,0.56593 1.501802,1.44913 0.539282,0.87845 0.562199,1.83115 0.01522,0.66067 -0.202896,1.33788 -0.215331,0.67246 -0.786831,1.64728 l -1.048216,1.78796 -7.080507,-4.15105 1.037065,-1.76894 q 0.607742,-1.03663 1.116748,-1.55609 0.507039,-0.527 1.01669,-0.79688 0.875492,-0.45795 1.863779,-0.42167 0.988286,0.0363 2.020167,0.64123 z m -0.591342,0.97597 q -0.832162,-0.48787 -1.572843,-0.53234 -0.740681,-0.0445 -1.406116,0.33856 -0.483087,0.27906 -0.849429,0.69686 -0.371097,0.41501 -0.755815,1.07123 l -0.518532,0.88447 5.463735,3.20319 0.518533,-0.88447 q 0.398656,-0.67999 0.594304,-1.24259 0.198437,-0.56735 0.175505,-1.14947 -0.02817,-0.72576 -0.426449,-1.31069 -0.395487,-0.58967 -1.222893,-1.07475 z m 6.223435,-6.97227 -2.660951,3.67413 q 0.459824,0.33302 0.903806,0.44359 0.439518,0.10733 0.832864,0.0247 0.382415,-0.077 0.719118,-0.31632 0.339937,-0.24383 0.617995,-0.62776 0.368589,-0.50894 0.539517,-1.16783 0.169696,-0.66659 0.131695,-1.0276 l 0.03233,-0.0446 0.915184,0.66281 q -0.128584,0.55344 -0.328138,1.0827 -0.199554,0.52927 -0.551976,1.01588 -0.89884,1.24108 -2.072871,1.45252 -1.178496,0.20822 -2.41511,-0.68739 -1.223222,-0.8859 -1.460224,-2.07164 -0.233769,-1.19019 0.55514,-2.27949 0.730711,-1.00893 1.714455,-1.12679 0.986977,-0.12232 2.071805,0.66335 z m -1.234542,0.35138 q -0.663952,-0.47405 -1.264821,-0.40558 -0.597635,0.064 -1.08262,0.73365 -0.488218,0.67411 -0.381886,1.36365 0.109566,0.68509 0.660057,1.16544 z m 7.241523,-3.02309 q -0.129074,0.27321 -0.314729,0.57085 -0.182106,0.29341 -0.356026,0.50006 -0.606944,0.72116 -1.310832,0.76996 -0.703889,0.0488 -1.560005,-0.67172 l -2.505087,-2.10833 -0.450772,0.53559 -0.666336,-0.5608 0.450771,-0.5356 -1.35376,-1.13935 0.667284,-0.79285 1.35376,1.13935 1.37716,-1.63632 0.666336,0.5608 -1.37716,1.63632 2.146616,1.80663 q 0.371124,0.31235 0.596188,0.47295 0.220846,0.15705 0.487376,0.20846 0.246779,0.0492 0.461784,-0.0436 0.214338,-0.10059 0.494739,-0.43375 0.163272,-0.194 0.285915,-0.45101 0.118427,-0.26056 0.158558,-0.38528 l 0.03549,-0.0422 z m 2.964281,-7.35277 -3.165855,3.24919 q 0.406642,0.39622 0.829886,0.57003 0.419295,0.16996 0.82047,0.14526 0.389533,-0.0207 0.757402,-0.20864 0.371716,-0.19193 0.702534,-0.53146 0.438527,-0.45007 0.703241,-1.07719 0.264613,-0.63492 0.279391,-0.99762 l 0.03847,-0.0395 0.809337,0.78857 q -0.207519,0.52893 -0.481749,1.02364 -0.27423,0.49472 -0.693524,0.92505 -1.069389,1.09754 -2.261676,1.13641 -1.196235,0.035 -2.289827,-1.03051 -1.081749,-1.054 -1.144212,-2.26157 -0.05862,-1.21152 0.879984,-2.17483 0.869359,-0.89225 1.859794,-0.86614 0.994282,0.0222 1.953642,0.95692 z m -1.272461,0.16855 q -0.588149,-0.56536 -1.192593,-0.5848 -0.600598,-0.0234 -1.177607,0.56882 -0.580855,0.59614 -0.57569,1.29382 0.009,0.69373 0.483986,1.24887 z m 4.797965,-6.09087 -0.04131,0.0365 q -0.210004,0.11196 -0.38985,0.2414 -0.179364,0.12167 -0.402451,0.31872 -0.359417,0.31749 -0.551728,0.77419 -0.195959,0.45257 -0.283199,0.97827 l 2.893831,3.27607 -0.776672,0.68605 -4.076178,-4.61459 0.776672,-0.68605 0.602121,0.68166 q 0.134268,-0.78053 0.350402,-1.24357 0.216616,-0.47082 0.584295,-0.7956 0.202431,-0.17881 0.304266,-0.2467 0.09819,-0.072 0.305504,-0.20367 z m 12.042634,-2.75656 -0.840463,0.60623 -2.05085,-2.84327 q -0.232172,-0.32188 -0.479514,-0.59884 -0.242872,-0.28018 -0.465738,-0.39128 -0.241481,-0.11807 -0.504656,-0.0778 -0.263175,0.0403 -0.625289,0.3015 -0.353173,0.25474 -0.577362,0.68831 -0.227414,0.42909 -0.383886,0.95654 0.08758,0.0931 0.196481,0.22528 0.105679,0.12767 0.202418,0.26179 l 2.305593,3.19644 -0.840463,0.60623 -2.050849,-2.84327 q -0.238621,-0.33082 -0.482739,-0.60331 -0.242872,-0.28018 -0.465738,-0.39128 -0.241481,-0.11807 -0.501431,-0.0733 -0.263175,0.0403 -0.625289,0.3015 -0.344233,0.24829 -0.5704,0.66969 -0.221697,0.41818 -0.375678,0.93023 l 2.689322,3.72844 -0.840463,0.60623 -3.601886,-4.9936 0.840463,-0.60623 0.399852,0.55435 q 0.158012,-0.61012 0.414741,-1.07395 0.261199,-0.46706 0.703783,-0.7863 0.509643,-0.3676 1.017597,-0.40776 0.512425,-0.0434 0.960868,0.21086 0.20008,-0.79678 0.484878,-1.28766 0.281574,-0.49534 0.759923,-0.84038 0.82258,-0.59332 1.572674,-0.37316 0.75134,0.21246 1.396261,1.10657 z m -0.169915,-8.20392 -1.004787,0.59663 -0.548794,-0.92421 1.004788,-0.59664 z m 3.613006,6.21416 -0.891038,0.52909 -3.143601,-5.29409 0.891038,-0.52909 z m 7.171071,-3.81659 -0.924739,0.4677 -1.582231,-3.12837 q -0.191559,-0.37875 -0.40251,-0.68592 -0.213439,-0.31209 -0.426027,-0.4393 -0.227457,-0.1444 -0.508397,-0.12585 -0.283429,0.0136 -0.65234,0.20022 -0.37875,0.19156 -0.697395,0.58745 -0.318645,0.39589 -0.550615,0.87766 l 2.074812,4.10229 -0.924738,0.46771 -2.778856,-5.49433 0.924739,-0.4677 0.308485,0.60993 q 0.251248,-0.578 0.611618,-1.01352 0.36037,-0.43552 0.847334,-0.68181 0.890307,-0.45029 1.628763,-0.15048 0.738457,0.29981 1.248453,1.30817 z m 7.112098,-2.96939 -0.957213,0.38241 -0.243352,-0.60913 q -0.0932,0.13814 -0.249919,0.38476 -0.153639,0.23945 -0.321581,0.41339 -0.193548,0.21384 -0.475119,0.41537 -0.279526,0.20664 -0.699267,0.37433 -0.772936,0.30879 -1.514906,0.0116 -0.741971,-0.29716 -1.058942,-1.09057 -0.259713,-0.65009 -0.142807,-1.15978 0.11998,-0.51686 0.544953,-0.95375 0.430092,-0.43893 1.129358,-0.81326 0.699267,-0.37433 1.522387,-0.75066 l -0.0593,-0.14845 q -0.130879,-0.3276 -0.3345,-0.49555 -0.198502,-0.17 -0.462571,-0.20696 -0.251786,-0.0359 -0.554797,0.0376 -0.303012,0.0736 -0.615258,0.19831 -0.37879,0.15133 -0.8037,0.4398 -0.426954,0.28335 -0.847812,0.67111 l -0.05119,0.0204 -0.390591,-0.97769 q 0.250858,-0.18925 0.746402,-0.49407 0.495544,-0.30482 1.012541,-0.51136 0.604017,-0.24131 1.090251,-0.31684 0.489307,-0.0827 0.913023,0.027 0.416553,0.10663 0.734756,0.41282 0.318204,0.30618 0.539061,0.85901 z m -1.519582,-1.02525 -0.635989,-1.59195 q -0.42999,0.20147 -1.008438,0.49192 -0.573329,0.2884 -0.882552,0.52472 -0.367587,0.28337 -0.523322,0.63644 -0.15778,0.34795 0.01604,0.78305 0.196318,0.4914 0.593411,0.62361 0.395049,0.1271 1.004184,-0.11626 0.50676,-0.20245 0.848791,-0.56465 0.339986,-0.36732 0.587872,-0.78688 z m 9.208643,-1.42615 -0.992448,0.29822 -1.008878,-3.35743 q -0.122144,-0.40648 -0.275936,-0.7459 -0.155378,-0.34469 -0.342353,-0.50722 -0.198598,-0.18206 -0.478436,-0.21308 -0.281424,-0.0363 -0.677347,0.0827 -0.406481,0.12215 -0.789636,0.456 -0.383155,0.33385 -0.696045,0.76745 l 1.322963,4.40267 -0.992448,0.29822 -1.771882,-5.89662 0.992448,-0.29822 0.196699,0.65459 q 0.348751,-0.52495 0.779937,-0.8905 0.431186,-0.36555 0.953805,-0.5226 0.955494,-0.28711 1.629902,0.1376 0.674408,0.42471 0.999597,1.5069 z m 5.952294,-1.42618 q -0.26871,0.1382 -0.59718,0.26133 -0.323086,0.12195 -0.586861,0.18004 -0.920521,0.20273 -1.50869,-0.18701 -0.588169,-0.38974 -0.82883,-1.48252 l -0.704199,-3.1976 -0.683661,0.15056 -0.187312,-0.85054 0.683661,-0.15056 -0.380552,-1.728 1.012035,-0.22287 0.380552,1.72799 2.088667,-0.45998 0.187312,0.85054 -2.088667,0.45998 0.603429,2.74003 q 0.104326,0.47372 0.185135,0.73813 0.07962,0.25904 0.259796,0.46206 0.165851,0.18924 0.392936,0.24648 0.231282,0.0507 0.656552,-0.043 0.247625,-0.0545 0.501372,-0.18379 0.252561,-0.13464 0.360321,-0.20917 l 0.05383,-0.0119 z m 6.241892,-2.74659 q 0.124931,0.83405 -0.487369,1.47198 -0.606848,0.63712 -1.800693,0.81594 -0.675966,0.10125 -1.266586,0.0281 -0.585984,-0.0794 -0.996157,-0.21308 l -0.172291,-1.15023 0.05451,-0.008 q 0.539878,0.29257 1.166736,0.42162 0.626041,0.1236 1.171176,0.0419 0.675966,-0.10125 1.024899,-0.37646 0.348932,-0.27521 0.27871,-0.74403 -0.05389,-0.35978 -0.288806,-0.5141 -0.234913,-0.15432 -0.843255,-0.19696 -0.225403,-0.0164 -0.589539,-0.0287 -0.358684,-0.0131 -0.659037,-0.0462 -0.833193,-0.0926 -1.232417,-0.4508 -0.394589,-0.36449 -0.484408,-0.96414 -0.05634,-0.37614 0.04649,-0.73154 0.10828,-0.35621 0.385264,-0.66523 0.266897,-0.30194 0.713666,-0.51935 0.451404,-0.22368 1.034698,-0.31105 0.545134,-0.0816 1.121585,-0.0287 0.581085,0.0467 0.980356,0.182 l 0.164125,1.09572 -0.05451,0.008 q -0.435773,-0.23013 -1.026657,-0.34228 -0.591701,-0.11759 -1.131384,-0.0367 -0.561488,0.0841 -0.915872,0.36013 -0.3552,0.27057 -0.29151,0.69578 0.05634,0.37614 0.319328,0.53183 0.257536,0.1565 0.787926,0.19967 0.293268,0.023 0.651953,0.0361 0.364136,0.0123 0.606709,0.0317 0.738622,0.0566 1.185275,0.39655 0.44747,0.34542 0.547088,1.01049 z m 12.754461,-1.96869 q 0.0187,1.50471 -0.74207,2.38517 -0.7608,0.88046 -2.05605,0.89658 -1.30628,0.0163 -2.08877,-0.84498 -0.776971,-0.86132 -0.795705,-2.36602 -0.01873,-1.5047 0.736555,-2.38509 0.76073,-0.88597 2.06701,-0.90224 1.29526,-0.0161 2.07781,0.85063 0.78249,0.86125 0.80122,2.36595 z m -1.06928,0.0133 q -0.0149,-1.19605 -0.49059,-1.76895 -0.47577,-0.57841 -1.30804,-0.56805 -0.8433,0.0105 -1.30452,0.60058 -0.45578,0.58449 -0.44089,1.78054 0.0144,1.15746 0.49039,1.75241 0.47591,0.58943 1.31369,0.579 0.82676,-0.0103 1.28791,-0.60588 0.4666,-0.60117 0.45205,-1.76965 z m 7.38579,-4.18071 -0.055,-0.003 q -0.16769,-0.0595 -0.43993,-0.1251 -0.27192,-0.0711 -0.48103,-0.0833 -0.66583,-0.0389 -0.98585,0.24055 -0.3142,0.27428 -0.35922,1.04467 l -0.0122,0.2091 1.86544,0.10903 -0.0508,0.86944 -1.83242,-0.1071 -0.30842,5.27716 -1.03452,-0.0605 0.30842,-5.27716 -0.69885,-0.0408 0.0508,-0.86944 0.69885,0.0408 0.0119,-0.2036 q 0.064,-1.09505 0.64287,-1.64651 0.57918,-0.55695 1.6082,-0.49681 0.34667,0.0203 0.61988,0.0694 0.27871,0.0494 0.50726,0.10694 z m 12.23798,9.53531 -1.07113,-0.20938 0.77089,-3.94373 -4.01946,-0.78569 -0.77089,3.94372 -1.07114,-0.20937 1.57456,-8.05516 1.07114,0.20938 -0.61756,3.15931 4.01946,0.78569 0.61756,-3.15931 1.07114,0.20938 z m 8.74052,-0.61822 -4.34916,-1.29022 q -0.16147,0.54431 -0.11837,0.99981 0.0447,0.45023 0.25323,0.79382 0.19954,0.33518 0.53712,0.57332 0.34286,0.2397 0.79733,0.37452 0.60243,0.17872 1.2807,0.1212 0.68512,-0.0612 1.01304,-0.21693 l 0.0529,0.0157 -0.32138,1.08333 q -0.56474,0.0625 -1.13024,0.0499 -0.56549,-0.0125 -1.14151,-0.1834 -1.46909,-0.43582 -2.05832,-1.47306 -0.58767,-1.04253 -0.15341,-2.50634 0.42955,-1.44796 1.46934,-2.06518 1.04508,-0.61565 2.3345,-0.23313 1.19431,0.3543 1.63208,1.24311 0.44306,0.89039 0.0621,2.17453 z m -0.74131,-1.04786 q 0.22673,-0.78368 -0.0373,-1.32773 -0.25879,-0.54249 -1.05146,-0.77765 -0.79797,-0.23672 -1.4131,0.0925 -0.60985,0.33079 -0.8802,1.00954 z m 6.70735,6.47618 -0.95944,-0.37679 0.23978,-0.61055 q -0.16252,0.0368 -0.4456,0.10925 -0.27594,0.0693 -0.51744,0.0811 -0.28748,0.0233 -0.63068,-0.0226 -0.34521,-0.0408 -0.76592,-0.20605 -0.77474,-0.30425 -1.11196,-1.02889 -0.33723,-0.72464 -0.0249,-1.51989 0.2559,-0.6516 0.69012,-0.94299 0.44137,-0.2945 1.05024,-0.32187 0.614,-0.0254 1.37993,0.18069 0.76592,0.20605 1.62347,0.49546 l 0.0584,-0.14879 q 0.12895,-0.32837 0.0956,-0.5902 -0.0282,-0.25982 -0.19538,-0.46758 -0.15888,-0.1986 -0.43008,-0.35249 -0.2712,-0.15388 -0.58417,-0.27679 -0.37967,-0.14911 -0.88686,-0.22985 -0.50518,-0.0859 -1.07741,-0.0915 l -0.0513,-0.0201 0.38486,-0.97996 q 0.31241,0.0339 0.88227,0.15107 0.56986,0.1172 1.08806,0.32071 0.60542,0.23776 1.01149,0.51568 0.41322,0.2748 0.64688,0.6449 0.23054,0.36295 0.25276,0.80398 0.0222,0.44103 -0.19539,0.99515 z m -0.40533,-1.78773 0.62665,-1.59564 q -0.45131,-0.14763 -1.07175,-0.33208 -0.61531,-0.18242 -1.00248,-0.22196 -0.46193,-0.0452 -0.81719,0.10545 -0.35326,0.14553 -0.52453,0.58164 -0.19343,0.49254 0.005,0.86081 0.20087,0.36314 0.81142,0.60292 0.50793,0.19948 1.00522,0.16974 0.4993,-0.0349 0.96725,-0.17088 z m 4.01202,3.44714 -0.93767,-0.44118 3.65153,-7.76079 0.93768,0.44118 z m 5.51087,2.78405 q -0.29393,-0.0701 -0.6234,-0.1905 -0.32462,-0.11781 -0.56264,-0.24547 -0.83064,-0.44552 -1.02327,-1.1243 -0.19263,-0.67877 0.33626,-1.66486 l 1.54759,-2.88539 -0.61691,-0.33088 0.41165,-0.7675 0.61691,0.33089 0.83633,-1.55928 0.91322,0.48981 -0.83633,1.55928 1.88474,1.01088 -0.41165,0.7675 -1.88474,-1.01089 -1.32613,2.4725 q -0.22927,0.42747 -0.34011,0.68077 -0.10824,0.24844 -0.10369,0.51984 0.003,0.25162 0.13774,0.44292 0.14255,0.18905 0.5263,0.39487 0.22344,0.11985 0.50019,0.18697 0.27936,0.0623 0.40967,0.0759 l 0.0486,0.0261 z m 6.2064,3.89902 -0.87388,-0.55698 1.88426,-2.9563 q 0.22813,-0.35792 0.38479,-0.69602 0.15963,-0.34274 0.16066,-0.59048 0.008,-0.26929 -0.15099,-0.50151 -0.15626,-0.23686 -0.50488,-0.45906 -0.35791,-0.22812 -0.86095,-0.30035 -0.50304,-0.0722 -1.03575,-0.0261 l -2.47088,3.87666 -0.87387,-0.55699 4.60993,-7.23271 0.87387,0.55699 -1.66799,2.61697 q 0.62533,-0.0786 1.18373,0.009 0.55841,0.0879 1.01859,0.38121 0.84134,0.53625 0.95999,1.32437 0.11866,0.78811 -0.48869,1.74101 z"
         id="text158-0"
         aria-label="Social Determinants of Health" /></g></g></svg>
